<?xml version="1.0" standalone="no"?><!DOCTYPE svg PUBLIC "-//W3C//DTD SVG 1.1//EN" "http://www.w3.org/Graphics/SVG/1.1/DTD/svg11.dtd"><svg t="1591543129004" class="icon" viewBox="0 0 1079 1024" version="1.1" xmlns="http://www.w3.org/2000/svg" p-id="2899" xmlns:xlink="http://www.w3.org/1999/xlink" width="210.7421875" height="200"><defs><style type="text/css"></style></defs><path d="M 750.737 493.542 a 205.5 205.5 0 0 0 -2.55147 -17.1093 c -21.9307 1.16907 -43.3835 -10.7861 -53.0859 -31.7013 c -9.7024 -20.9408 -4.82987 -44.7403 10.368 -60.3989 a 223.497 223.497 0 0 0 -11.52 -13.1072 c -17.8688 12.672 -42.4277 14.1227 -62.0459 1.664 a 54.3061 54.3061 0 0 1 -24.1493 -56.4907 a 205.44 205.44 0 0 0 -16.8021 -4.90667 a 55.0656 55.0656 0 0 1 -51.2768 34.6283 h -0.64 a 55.0741 55.0741 0 0 1 -51.5157 -34.4235 c -5.70027 1.42507 -11.2981 3.11467 -16.7936 4.992 c 0.7424 3.59253 1.24587 7.20213 1.24587 10.8288 c 0 17.7749 -8.9088 35.2256 -25.1733 45.7557 v -0.1024 c -19.5499 12.5952 -44.0832 11.2725 -61.9861 -1.32267 a 208.171 208.171 0 0 0 -11.4859 13.2011 a 54.1696 54.1696 0 0 1 15.6075 37.7856 c 0 7.54347 -1.57013 15.1637 -4.9664 22.528 c -9.63413 21.0005 -31.0101 32.9557 -52.9493 31.8805 a 205.568 205.568 0 0 0 -2.47467 17.1605 c 21.4613 4.94933 38.7243 22.3488 42.1035 45.2096 c 0.366933 2.62827 0.546133 5.25653 0.546134 7.89333 c 0 19.7547 -10.9141 37.6235 -27.7248 47.1637 c 2.2272 5.35893 4.70187 10.5643 7.35573 15.7099 c 20.7275 -7.296 44.7232 -1.90293 60.0576 15.488 a 53.8965 53.8965 0 0 1 13.5083 35.7632 c 0 8.6528 -2.13333 17.2544 -6.21227 25.1051 c 4.79573 3.31093 9.71947 6.44267 14.7797 9.37813 a 55.4581 55.4581 0 0 1 58.9483 -18.9525 a 54.4768 54.4768 0 0 1 39.2704 47.3173 c 2.816 0.110933 5.6576 0.2048 8.49067 0.221867 c 3.072 0 6.13547 -0.1024 9.18187 -0.221867 a 54.5451 54.5451 0 0 1 39.2363 -47.4795 a 55.5093 55.5093 0 0 1 59.0677 18.688 a 217.429 217.429 0 0 0 14.7115 -9.4208 a 54.1355 54.1355 0 0 1 7.05707 -60.9451 c 15.2661 -17.3909 39.2363 -22.912 59.9808 -15.7184 a 197.888 197.888 0 0 0 7.28747 -15.744 c -19.0891 -10.7093 -30.6347 -32.1963 -27.4005 -55.0059 c 3.24267 -22.8437 20.48 -40.2944 41.9499 -45.312 Z" fill="#1296db" p-id="2900"></path><path d="M 539.733 22.7413 c -269.414 0 -487.825 218.411 -487.825 487.817 c 0 269.414 218.411 487.825 487.825 487.825 c 269.423 0 487.825 -218.411 487.825 -487.825 c -0.008533 -269.414 -218.411 -487.817 -487.825 -487.817 Z m 278.204 531.396 c -3.8656 27.3323 -27.7248 47.0357 -54.9205 46.8053 a 232.499 232.499 0 0 1 -11.0848 23.9957 a 54.0757 54.0757 0 0 1 13.8325 36.0704 c 0 12.6293 -4.41173 25.344 -13.4144 35.6011 c -18.304 20.9237 -49.1264 24.6528 -71.8336 9.94133 a 239.479 239.479 0 0 1 -22.3829 14.3275 c 0.4352 2.78187 0.6912 5.57227 0.6912 8.33707 c 0 23.5349 -15.5221 45.2267 -39.5008 52.3179 c -26.7947 7.73973 -54.7072 -5.4784 -65.8091 -30.0032 a 230.955 230.955 0 0 1 -26.7349 0.059733 c -10.9739 24.6101 -38.8693 37.9648 -65.6384 30.208 c -26.8373 -7.74827 -43.1445 -33.8176 -39.0741 -60.4757 a 241.314 241.314 0 0 1 -22.3915 -14.1995 c -22.6987 14.7883 -53.5296 11.1445 -71.9104 -9.7024 c -18.3808 -20.736 -17.8347 -51.4048 0.128 -71.6373 a 232.192 232.192 0 0 1 -11.1616 -23.936 c -27.2043 0.256 -51.1573 -19.3024 -55.2107 -46.6347 c -3.95093 -27.2043 13.2523 -52.6933 39.3387 -60.1088 c 0.759467 -8.8576 1.96267 -17.5787 3.66933 -26.1291 c -23.04 -14.2848 -32.4267 -43.5115 -20.9664 -68.5909 c 11.5541 -25.2416 40.0555 -37.4357 66.0992 -29.6619 a 240.896 240.896 0 0 1 17.3739 -19.9168 a 54.1099 54.1099 0 0 1 19.7803 -69.0005 c 23.4069 -15.0784 53.9648 -10.1803 71.7056 10.1973 c 8.35413 -2.98667 16.9216 -5.46987 25.6597 -7.53493 c 3.56693 -26.6411 26.4448 -47.1893 54.3915 -47.3515 h 1.1008 c 27.8784 0 50.9099 20.5483 54.5621 47.1296 a 240.128 240.128 0 0 1 25.6683 7.43253 c 17.5872 -20.4288 48.1792 -25.4379 71.7141 -10.5301 a 54.4427 54.4427 0 0 1 25.2587 45.9605 c 0 7.79093 -1.7408 15.616 -5.2224 23.0059 a 238.268 238.268 0 0 1 17.4507 19.8741 c 26.0096 -7.8848 54.5792 4.21547 66.2357 29.312 c 3.38773 7.35573 4.94933 15.0784 4.94933 22.7072 a 54.4427 54.4427 0 0 1 -25.6256 46.0117 c 1.75787 8.61013 2.9952 17.3824 3.77173 26.2827 c 23.6203 6.656 40.0469 27.8784 40.0469 52.1984 c 0.017067 2.4576 -0.170667 5.08587 -0.546133 7.63733 Z" fill="#1296db" p-id="2901"></path></svg>